<svg width="640" height="480" xmlns="http://www.w3.org/2000/svg" xmlns:xlink="http://www.w3.org/1999/xlink">
<rect width="640" height="480" style="fill:white;stroke-width:0" />
<!-- plot grid-->
<line x1="30" y1="450" x2="610" y2="450" style="stroke:rgb(0,0,0);stroke-width:1" />
<line x1="30" y1="30" x2="610" y2="30" style="stroke:rgb(0,0,0);stroke-width:1" />
<line x1="30" y1="450" x2="30" y2="30" style="stroke:rgb(0,0,0);stroke-width:1" />
<line x1="610" y1="450" x2="610" y2="30" style="stroke:rgb(0,0,0);stroke-width:1" />
<!-- grid x scale-->
<line x1="30" y1="450" x2="30" y2="444" style="stroke:rgb(0,0,0);stroke-width:1" />
<line x1="30" y1="30" x2="30" y2="36" style="stroke:rgb(0,0,0);stroke-width:1" />
<text x="23" y="464" style="fill:rgb(0,0,0)" font-family="Verdana" font-size="10">1970</text>
<line x1="88" y1="450" x2="88" y2="444" style="stroke:rgb(0,0,0);stroke-width:1" />
<line x1="88" y1="30" x2="88" y2="36" style="stroke:rgb(0,0,0);stroke-width:1" />
<text x="81" y="464" style="fill:rgb(0,0,0)" font-family="Verdana" font-size="10">1973</text>
<line x1="146" y1="450" x2="146" y2="444" style="stroke:rgb(0,0,0);stroke-width:1" />
<line x1="146" y1="30" x2="146" y2="36" style="stroke:rgb(0,0,0);stroke-width:1" />
<text x="139" y="464" style="fill:rgb(0,0,0)" font-family="Verdana" font-size="10">1976</text>
<line x1="204" y1="450" x2="204" y2="444" style="stroke:rgb(0,0,0);stroke-width:1" />
<line x1="204" y1="30" x2="204" y2="36" style="stroke:rgb(0,0,0);stroke-width:1" />
<text x="197" y="464" style="fill:rgb(0,0,0)" font-family="Verdana" font-size="10">1979</text>
<line x1="262" y1="450" x2="262" y2="444" style="stroke:rgb(0,0,0);stroke-width:1" />
<line x1="262" y1="30" x2="262" y2="36" style="stroke:rgb(0,0,0);stroke-width:1" />
<text x="255" y="464" style="fill:rgb(0,0,0)" font-family="Verdana" font-size="10">1982</text>
<line x1="320" y1="450" x2="320" y2="444" style="stroke:rgb(0,0,0);stroke-width:1" />
<line x1="320" y1="30" x2="320" y2="36" style="stroke:rgb(0,0,0);stroke-width:1" />
<text x="313" y="464" style="fill:rgb(0,0,0)" font-family="Verdana" font-size="10">1985</text>
<line x1="378" y1="450" x2="378" y2="444" style="stroke:rgb(0,0,0);stroke-width:1" />
<line x1="378" y1="30" x2="378" y2="36" style="stroke:rgb(0,0,0);stroke-width:1" />
<text x="371" y="464" style="fill:rgb(0,0,0)" font-family="Verdana" font-size="10">1988</text>
<line x1="436" y1="450" x2="436" y2="444" style="stroke:rgb(0,0,0);stroke-width:1" />
<line x1="436" y1="30" x2="436" y2="36" style="stroke:rgb(0,0,0);stroke-width:1" />
<text x="429" y="464" style="fill:rgb(0,0,0)" font-family="Verdana" font-size="10">1991</text>
<line x1="494" y1="450" x2="494" y2="444" style="stroke:rgb(0,0,0);stroke-width:1" />
<line x1="494" y1="30" x2="494" y2="36" style="stroke:rgb(0,0,0);stroke-width:1" />
<text x="487" y="464" style="fill:rgb(0,0,0)" font-family="Verdana" font-size="10">1994</text>
<line x1="552" y1="450" x2="552" y2="444" style="stroke:rgb(0,0,0);stroke-width:1" />
<line x1="552" y1="30" x2="552" y2="36" style="stroke:rgb(0,0,0);stroke-width:1" />
<text x="545" y="464" style="fill:rgb(0,0,0)" font-family="Verdana" font-size="10">1997</text>
<line x1="610" y1="450" x2="610" y2="444" style="stroke:rgb(0,0,0);stroke-width:1" />
<line x1="610" y1="30" x2="610" y2="36" style="stroke:rgb(0,0,0);stroke-width:1" />
<text x="603" y="464" style="fill:rgb(0,0,0)" font-family="Verdana" font-size="10">2000</text>
<!-- grid y scale-->
<line x1="30" y1="450" x2="36" y2="450" style="stroke:rgb(0,0,0);stroke-width:1" />
<line x1="610" y1="450" x2="604" y2="450" style="stroke:rgb(0,0,0);stroke-width:1" />
<text x="17" y="454" style="fill:rgb(0,0,0)" font-family="Verdana" font-size="10">40</text>
<line x1="30" y1="418" x2="36" y2="418" style="stroke:rgb(0,0,0);stroke-width:1" />
<line x1="610" y1="418" x2="604" y2="418" style="stroke:rgb(0,0,0);stroke-width:1" />
<text x="17" y="422" style="fill:rgb(0,0,0)" font-family="Verdana" font-size="10">50</text>
<line x1="30" y1="386" x2="36" y2="386" style="stroke:rgb(0,0,0);stroke-width:1" />
<line x1="610" y1="386" x2="604" y2="386" style="stroke:rgb(0,0,0);stroke-width:1" />
<text x="17" y="390" style="fill:rgb(0,0,0)" font-family="Verdana" font-size="10">60</text>
<line x1="30" y1="354" x2="36" y2="354" style="stroke:rgb(0,0,0);stroke-width:1" />
<line x1="610" y1="354" x2="604" y2="354" style="stroke:rgb(0,0,0);stroke-width:1" />
<text x="17" y="358" style="fill:rgb(0,0,0)" font-family="Verdana" font-size="10">70</text>
<line x1="30" y1="321" x2="36" y2="321" style="stroke:rgb(0,0,0);stroke-width:1" />
<line x1="610" y1="321" x2="604" y2="321" style="stroke:rgb(0,0,0);stroke-width:1" />
<text x="17" y="325" style="fill:rgb(0,0,0)" font-family="Verdana" font-size="10">80</text>
<line x1="30" y1="289" x2="36" y2="289" style="stroke:rgb(0,0,0);stroke-width:1" />
<line x1="610" y1="289" x2="604" y2="289" style="stroke:rgb(0,0,0);stroke-width:1" />
<text x="17" y="293" style="fill:rgb(0,0,0)" font-family="Verdana" font-size="10">90</text>
<line x1="30" y1="257" x2="36" y2="257" style="stroke:rgb(0,0,0);stroke-width:1" />
<line x1="610" y1="257" x2="604" y2="257" style="stroke:rgb(0,0,0);stroke-width:1" />
<text x="13" y="261" style="fill:rgb(0,0,0)" font-family="Verdana" font-size="10">100</text>
<line x1="30" y1="224" x2="36" y2="224" style="stroke:rgb(0,0,0);stroke-width:1" />
<line x1="610" y1="224" x2="604" y2="224" style="stroke:rgb(0,0,0);stroke-width:1" />
<text x="13" y="228" style="fill:rgb(0,0,0)" font-family="Verdana" font-size="10">110</text>
<line x1="30" y1="192" x2="36" y2="192" style="stroke:rgb(0,0,0);stroke-width:1" />
<line x1="610" y1="192" x2="604" y2="192" style="stroke:rgb(0,0,0);stroke-width:1" />
<text x="13" y="196" style="fill:rgb(0,0,0)" font-family="Verdana" font-size="10">120</text>
<line x1="30" y1="160" x2="36" y2="160" style="stroke:rgb(0,0,0);stroke-width:1" />
<line x1="610" y1="160" x2="604" y2="160" style="stroke:rgb(0,0,0);stroke-width:1" />
<text x="13" y="164" style="fill:rgb(0,0,0)" font-family="Verdana" font-size="10">130</text>
<line x1="30" y1="127" x2="36" y2="127" style="stroke:rgb(0,0,0);stroke-width:1" />
<line x1="610" y1="127" x2="604" y2="127" style="stroke:rgb(0,0,0);stroke-width:1" />
<text x="13" y="131" style="fill:rgb(0,0,0)" font-family="Verdana" font-size="10">140</text>
<line x1="30" y1="95" x2="36" y2="95" style="stroke:rgb(0,0,0);stroke-width:1" />
<line x1="610" y1="95" x2="604" y2="95" style="stroke:rgb(0,0,0);stroke-width:1" />
<text x="13" y="99" style="fill:rgb(0,0,0)" font-family="Verdana" font-size="10">150</text>
<line x1="30" y1="63" x2="36" y2="63" style="stroke:rgb(0,0,0);stroke-width:1" />
<line x1="610" y1="63" x2="604" y2="63" style="stroke:rgb(0,0,0);stroke-width:1" />
<text x="13" y="67" style="fill:rgb(0,0,0)" font-family="Verdana" font-size="10">160</text>
<line x1="30" y1="30" x2="36" y2="30" style="stroke:rgb(0,0,0);stroke-width:1" />
<line x1="610" y1="30" x2="604" y2="30" style="stroke:rgb(0,0,0);stroke-width:1" />
<text x="13" y="34" style="fill:rgb(0,0,0)" font-family="Verdana" font-size="10">170</text>
<!-- plotting test_data_file u 1:2-->
<line x1="126" y1="421" x2="146" y2="412" style="stroke:rgb(255,0,0);stroke-width:1" />
<line x1="146" y1="412" x2="165" y2="363" style="stroke:rgb(255,0,0);stroke-width:1" />
<line x1="165" y1="363" x2="184" y2="408" style="stroke:rgb(255,0,0);stroke-width:1" />
<line x1="184" y1="408" x2="204" y2="363" style="stroke:rgb(255,0,0);stroke-width:1" />
<line x1="204" y1="363" x2="223" y2="431" style="stroke:rgb(255,0,0);stroke-width:1" />
<line x1="223" y1="431" x2="242" y2="386" style="stroke:rgb(255,0,0);stroke-width:1" />
<line x1="242" y1="386" x2="262" y2="418" style="stroke:rgb(255,0,0);stroke-width:1" />
<line x1="262" y1="418" x2="281" y2="366" style="stroke:rgb(255,0,0);stroke-width:1" />
<line x1="281" y1="366" x2="300" y2="354" style="stroke:rgb(255,0,0);stroke-width:1" />
<line x1="300" y1="354" x2="320" y2="286" style="stroke:rgb(255,0,0);stroke-width:1" />
<line x1="320" y1="286" x2="339" y2="150" style="stroke:rgb(255,0,0);stroke-width:1" />
<line x1="339" y1="150" x2="358" y2="169" style="stroke:rgb(255,0,0);stroke-width:1" />
<line x1="358" y1="169" x2="378" y2="140" style="stroke:rgb(255,0,0);stroke-width:1" />
<line x1="378" y1="140" x2="397" y2="82" style="stroke:rgb(255,0,0);stroke-width:1" />
<line x1="397" y1="82" x2="416" y2="169" style="stroke:rgb(255,0,0);stroke-width:1" />
<line x1="416" y1="169" x2="436" y2="105" style="stroke:rgb(255,0,0);stroke-width:1" />
<line x1="436" y1="105" x2="455" y2="108" style="stroke:rgb(255,0,0);stroke-width:1" />
<line x1="455" y1="108" x2="474" y2="150" style="stroke:rgb(255,0,0);stroke-width:1" />
<line x1="474" y1="150" x2="494" y2="114" style="stroke:rgb(255,0,0);stroke-width:1" />
<line x1="494" y1="114" x2="513" y2="69" style="stroke:rgb(255,0,0);stroke-width:1" />
<line x1="590" y1="44" x2="600" y2="44" style="stroke:rgb(255,0,0);stroke-width:1" />
<text x="506" y="48" style="fill:rgb(0,0,0)" font-family="Verdana" font-size="10">test_data_file u 1:2</text>
<!-- plotting test_data_file u 1:3-->
<line x1="122" y1="56" x2="130" y2="56" style="stroke:rgb(0,255,0);stroke-width:1" />
<line x1="126" y1="60" x2="126" y2="52" style="stroke:rgb(0,255,0);stroke-width:1" />
<line x1="142" y1="114" x2="150" y2="114" style="stroke:rgb(0,255,0);stroke-width:1" />
<line x1="146" y1="118" x2="146" y2="110" style="stroke:rgb(0,255,0);stroke-width:1" />
<line x1="161" y1="127" x2="169" y2="127" style="stroke:rgb(0,255,0);stroke-width:1" />
<line x1="165" y1="131" x2="165" y2="123" style="stroke:rgb(0,255,0);stroke-width:1" />
<line x1="180" y1="186" x2="188" y2="186" style="stroke:rgb(0,255,0);stroke-width:1" />
<line x1="184" y1="190" x2="184" y2="182" style="stroke:rgb(0,255,0);stroke-width:1" />
<line x1="200" y1="176" x2="208" y2="176" style="stroke:rgb(0,255,0);stroke-width:1" />
<line x1="204" y1="180" x2="204" y2="172" style="stroke:rgb(0,255,0);stroke-width:1" />
<line x1="219" y1="202" x2="227" y2="202" style="stroke:rgb(0,255,0);stroke-width:1" />
<line x1="223" y1="206" x2="223" y2="198" style="stroke:rgb(0,255,0);stroke-width:1" />
<line x1="238" y1="205" x2="246" y2="205" style="stroke:rgb(0,255,0);stroke-width:1" />
<line x1="242" y1="209" x2="242" y2="201" style="stroke:rgb(0,255,0);stroke-width:1" />
<line x1="258" y1="215" x2="266" y2="215" style="stroke:rgb(0,255,0);stroke-width:1" />
<line x1="262" y1="219" x2="262" y2="211" style="stroke:rgb(0,255,0);stroke-width:1" />
<line x1="277" y1="270" x2="285" y2="270" style="stroke:rgb(0,255,0);stroke-width:1" />
<line x1="281" y1="274" x2="281" y2="266" style="stroke:rgb(0,255,0);stroke-width:1" />
<line x1="296" y1="253" x2="304" y2="253" style="stroke:rgb(0,255,0);stroke-width:1" />
<line x1="300" y1="257" x2="300" y2="249" style="stroke:rgb(0,255,0);stroke-width:1" />
<line x1="316" y1="279" x2="324" y2="279" style="stroke:rgb(0,255,0);stroke-width:1" />
<line x1="320" y1="283" x2="320" y2="275" style="stroke:rgb(0,255,0);stroke-width:1" />
<line x1="335" y1="282" x2="343" y2="282" style="stroke:rgb(0,255,0);stroke-width:1" />
<line x1="339" y1="286" x2="339" y2="278" style="stroke:rgb(0,255,0);stroke-width:1" />
<line x1="354" y1="273" x2="362" y2="273" style="stroke:rgb(0,255,0);stroke-width:1" />
<line x1="358" y1="277" x2="358" y2="269" style="stroke:rgb(0,255,0);stroke-width:1" />
<line x1="374" y1="324" x2="382" y2="324" style="stroke:rgb(0,255,0);stroke-width:1" />
<line x1="378" y1="328" x2="378" y2="320" style="stroke:rgb(0,255,0);stroke-width:1" />
<line x1="393" y1="328" x2="401" y2="328" style="stroke:rgb(0,255,0);stroke-width:1" />
<line x1="397" y1="332" x2="397" y2="324" style="stroke:rgb(0,255,0);stroke-width:1" />
<line x1="412" y1="305" x2="420" y2="305" style="stroke:rgb(0,255,0);stroke-width:1" />
<line x1="416" y1="309" x2="416" y2="301" style="stroke:rgb(0,255,0);stroke-width:1" />
<line x1="432" y1="350" x2="440" y2="350" style="stroke:rgb(0,255,0);stroke-width:1" />
<line x1="436" y1="354" x2="436" y2="346" style="stroke:rgb(0,255,0);stroke-width:1" />
<line x1="451" y1="405" x2="459" y2="405" style="stroke:rgb(0,255,0);stroke-width:1" />
<line x1="455" y1="409" x2="455" y2="401" style="stroke:rgb(0,255,0);stroke-width:1" />
<line x1="470" y1="415" x2="478" y2="415" style="stroke:rgb(0,255,0);stroke-width:1" />
<line x1="474" y1="419" x2="474" y2="411" style="stroke:rgb(0,255,0);stroke-width:1" />
<line x1="490" y1="421" x2="498" y2="421" style="stroke:rgb(0,255,0);stroke-width:1" />
<line x1="494" y1="425" x2="494" y2="417" style="stroke:rgb(0,255,0);stroke-width:1" />
<line x1="509" y1="441" x2="517" y2="441" style="stroke:rgb(0,255,0);stroke-width:1" />
<line x1="513" y1="445" x2="513" y2="437" style="stroke:rgb(0,255,0);stroke-width:1" />
<line x1="590" y1="58" x2="600" y2="58" style="stroke:rgb(0,255,0);stroke-width:1" />
<text x="506" y="66" style="fill:rgb(0,0,0)" font-family="Verdana" font-size="10">test_data_file u 1:3</text>
</svg>
