<svg width="640" height="480" xmlns="http://www.w3.org/2000/svg" xmlns:xlink="http://www.w3.org/1999/xlink">
<rect width="640" height="480" style="fill:white;stroke-width:0" />
<!-- plot grid-->
<line x1="30" y1="450" x2="610" y2="450" style="stroke:rgb(0,0,0);stroke-width:1" />
<line x1="30" y1="30" x2="610" y2="30" style="stroke:rgb(0,0,0);stroke-width:1" />
<line x1="30" y1="450" x2="30" y2="30" style="stroke:rgb(0,0,0);stroke-width:1" />
<line x1="610" y1="450" x2="610" y2="30" style="stroke:rgb(0,0,0);stroke-width:1" />
<!-- grid x scale-->
<line x1="30" y1="450" x2="30" y2="444" style="stroke:rgb(0,0,0);stroke-width:1" />
<line x1="30" y1="30" x2="30" y2="36" style="stroke:rgb(0,0,0);stroke-width:1" />
<text x="25" y="464" style="fill:rgb(0,0,0)" font-family="Verdana" font-size="10">120</text>
<line x1="59" y1="450" x2="59" y2="444" style="stroke:rgb(0,0,0);stroke-width:1" />
<line x1="59" y1="30" x2="59" y2="36" style="stroke:rgb(0,0,0);stroke-width:1" />
<text x="54" y="464" style="fill:rgb(0,0,0)" font-family="Verdana" font-size="10">136</text>
<line x1="88" y1="450" x2="88" y2="444" style="stroke:rgb(0,0,0);stroke-width:1" />
<line x1="88" y1="30" x2="88" y2="36" style="stroke:rgb(0,0,0);stroke-width:1" />
<text x="83" y="464" style="fill:rgb(0,0,0)" font-family="Verdana" font-size="10">152</text>
<line x1="117" y1="450" x2="117" y2="444" style="stroke:rgb(0,0,0);stroke-width:1" />
<line x1="117" y1="30" x2="117" y2="36" style="stroke:rgb(0,0,0);stroke-width:1" />
<text x="112" y="464" style="fill:rgb(0,0,0)" font-family="Verdana" font-size="10">168</text>
<line x1="146" y1="450" x2="146" y2="444" style="stroke:rgb(0,0,0);stroke-width:1" />
<line x1="146" y1="30" x2="146" y2="36" style="stroke:rgb(0,0,0);stroke-width:1" />
<text x="141" y="464" style="fill:rgb(0,0,0)" font-family="Verdana" font-size="10">184</text>
<line x1="175" y1="450" x2="175" y2="444" style="stroke:rgb(0,0,0);stroke-width:1" />
<line x1="175" y1="30" x2="175" y2="36" style="stroke:rgb(0,0,0);stroke-width:1" />
<text x="170" y="464" style="fill:rgb(0,0,0)" font-family="Verdana" font-size="10">200</text>
<line x1="204" y1="450" x2="204" y2="444" style="stroke:rgb(0,0,0);stroke-width:1" />
<line x1="204" y1="30" x2="204" y2="36" style="stroke:rgb(0,0,0);stroke-width:1" />
<text x="199" y="464" style="fill:rgb(0,0,0)" font-family="Verdana" font-size="10">216</text>
<line x1="233" y1="450" x2="233" y2="444" style="stroke:rgb(0,0,0);stroke-width:1" />
<line x1="233" y1="30" x2="233" y2="36" style="stroke:rgb(0,0,0);stroke-width:1" />
<text x="228" y="464" style="fill:rgb(0,0,0)" font-family="Verdana" font-size="10">232</text>
<line x1="262" y1="450" x2="262" y2="444" style="stroke:rgb(0,0,0);stroke-width:1" />
<line x1="262" y1="30" x2="262" y2="36" style="stroke:rgb(0,0,0);stroke-width:1" />
<text x="257" y="464" style="fill:rgb(0,0,0)" font-family="Verdana" font-size="10">248</text>
<line x1="291" y1="450" x2="291" y2="444" style="stroke:rgb(0,0,0);stroke-width:1" />
<line x1="291" y1="30" x2="291" y2="36" style="stroke:rgb(0,0,0);stroke-width:1" />
<text x="286" y="464" style="fill:rgb(0,0,0)" font-family="Verdana" font-size="10">264</text>
<line x1="320" y1="450" x2="320" y2="444" style="stroke:rgb(0,0,0);stroke-width:1" />
<line x1="320" y1="30" x2="320" y2="36" style="stroke:rgb(0,0,0);stroke-width:1" />
<text x="315" y="464" style="fill:rgb(0,0,0)" font-family="Verdana" font-size="10">280</text>
<line x1="349" y1="450" x2="349" y2="444" style="stroke:rgb(0,0,0);stroke-width:1" />
<line x1="349" y1="30" x2="349" y2="36" style="stroke:rgb(0,0,0);stroke-width:1" />
<text x="344" y="464" style="fill:rgb(0,0,0)" font-family="Verdana" font-size="10">296</text>
<line x1="378" y1="450" x2="378" y2="444" style="stroke:rgb(0,0,0);stroke-width:1" />
<line x1="378" y1="30" x2="378" y2="36" style="stroke:rgb(0,0,0);stroke-width:1" />
<text x="373" y="464" style="fill:rgb(0,0,0)" font-family="Verdana" font-size="10">312</text>
<line x1="407" y1="450" x2="407" y2="444" style="stroke:rgb(0,0,0);stroke-width:1" />
<line x1="407" y1="30" x2="407" y2="36" style="stroke:rgb(0,0,0);stroke-width:1" />
<text x="402" y="464" style="fill:rgb(0,0,0)" font-family="Verdana" font-size="10">328</text>
<line x1="436" y1="450" x2="436" y2="444" style="stroke:rgb(0,0,0);stroke-width:1" />
<line x1="436" y1="30" x2="436" y2="36" style="stroke:rgb(0,0,0);stroke-width:1" />
<text x="431" y="464" style="fill:rgb(0,0,0)" font-family="Verdana" font-size="10">344</text>
<line x1="465" y1="450" x2="465" y2="444" style="stroke:rgb(0,0,0);stroke-width:1" />
<line x1="465" y1="30" x2="465" y2="36" style="stroke:rgb(0,0,0);stroke-width:1" />
<text x="460" y="464" style="fill:rgb(0,0,0)" font-family="Verdana" font-size="10">360</text>
<line x1="494" y1="450" x2="494" y2="444" style="stroke:rgb(0,0,0);stroke-width:1" />
<line x1="494" y1="30" x2="494" y2="36" style="stroke:rgb(0,0,0);stroke-width:1" />
<text x="489" y="464" style="fill:rgb(0,0,0)" font-family="Verdana" font-size="10">376</text>
<line x1="523" y1="450" x2="523" y2="444" style="stroke:rgb(0,0,0);stroke-width:1" />
<line x1="523" y1="30" x2="523" y2="36" style="stroke:rgb(0,0,0);stroke-width:1" />
<text x="518" y="464" style="fill:rgb(0,0,0)" font-family="Verdana" font-size="10">392</text>
<line x1="552" y1="450" x2="552" y2="444" style="stroke:rgb(0,0,0);stroke-width:1" />
<line x1="552" y1="30" x2="552" y2="36" style="stroke:rgb(0,0,0);stroke-width:1" />
<text x="547" y="464" style="fill:rgb(0,0,0)" font-family="Verdana" font-size="10">408</text>
<line x1="581" y1="450" x2="581" y2="444" style="stroke:rgb(0,0,0);stroke-width:1" />
<line x1="581" y1="30" x2="581" y2="36" style="stroke:rgb(0,0,0);stroke-width:1" />
<text x="576" y="464" style="fill:rgb(0,0,0)" font-family="Verdana" font-size="10">424</text>
<line x1="610" y1="450" x2="610" y2="444" style="stroke:rgb(0,0,0);stroke-width:1" />
<line x1="610" y1="30" x2="610" y2="36" style="stroke:rgb(0,0,0);stroke-width:1" />
<text x="605" y="464" style="fill:rgb(0,0,0)" font-family="Verdana" font-size="10">440</text>
<!-- grid y scale-->
<line x1="30" y1="450" x2="36" y2="450" style="stroke:rgb(0,0,0);stroke-width:1" />
<line x1="610" y1="450" x2="604" y2="450" style="stroke:rgb(0,0,0);stroke-width:1" />
<text x="21" y="454" style="fill:rgb(0,0,0)" font-family="Verdana" font-size="10">0</text>
<line x1="30" y1="408" x2="36" y2="408" style="stroke:rgb(0,0,0);stroke-width:1" />
<line x1="610" y1="408" x2="604" y2="408" style="stroke:rgb(0,0,0);stroke-width:1" />
<text x="17" y="412" style="fill:rgb(0,0,0)" font-family="Verdana" font-size="10">10</text>
<line x1="30" y1="366" x2="36" y2="366" style="stroke:rgb(0,0,0);stroke-width:1" />
<line x1="610" y1="366" x2="604" y2="366" style="stroke:rgb(0,0,0);stroke-width:1" />
<text x="17" y="370" style="fill:rgb(0,0,0)" font-family="Verdana" font-size="10">20</text>
<line x1="30" y1="324" x2="36" y2="324" style="stroke:rgb(0,0,0);stroke-width:1" />
<line x1="610" y1="324" x2="604" y2="324" style="stroke:rgb(0,0,0);stroke-width:1" />
<text x="17" y="328" style="fill:rgb(0,0,0)" font-family="Verdana" font-size="10">30</text>
<line x1="30" y1="282" x2="36" y2="282" style="stroke:rgb(0,0,0);stroke-width:1" />
<line x1="610" y1="282" x2="604" y2="282" style="stroke:rgb(0,0,0);stroke-width:1" />
<text x="17" y="286" style="fill:rgb(0,0,0)" font-family="Verdana" font-size="10">40</text>
<line x1="30" y1="240" x2="36" y2="240" style="stroke:rgb(0,0,0);stroke-width:1" />
<line x1="610" y1="240" x2="604" y2="240" style="stroke:rgb(0,0,0);stroke-width:1" />
<text x="17" y="244" style="fill:rgb(0,0,0)" font-family="Verdana" font-size="10">50</text>
<line x1="30" y1="198" x2="36" y2="198" style="stroke:rgb(0,0,0);stroke-width:1" />
<line x1="610" y1="198" x2="604" y2="198" style="stroke:rgb(0,0,0);stroke-width:1" />
<text x="17" y="202" style="fill:rgb(0,0,0)" font-family="Verdana" font-size="10">60</text>
<line x1="30" y1="156" x2="36" y2="156" style="stroke:rgb(0,0,0);stroke-width:1" />
<line x1="610" y1="156" x2="604" y2="156" style="stroke:rgb(0,0,0);stroke-width:1" />
<text x="17" y="160" style="fill:rgb(0,0,0)" font-family="Verdana" font-size="10">70</text>
<line x1="30" y1="114" x2="36" y2="114" style="stroke:rgb(0,0,0);stroke-width:1" />
<line x1="610" y1="114" x2="604" y2="114" style="stroke:rgb(0,0,0);stroke-width:1" />
<text x="17" y="118" style="fill:rgb(0,0,0)" font-family="Verdana" font-size="10">80</text>
<line x1="30" y1="72" x2="36" y2="72" style="stroke:rgb(0,0,0);stroke-width:1" />
<line x1="610" y1="72" x2="604" y2="72" style="stroke:rgb(0,0,0);stroke-width:1" />
<text x="17" y="76" style="fill:rgb(0,0,0)" font-family="Verdana" font-size="10">90</text>
<line x1="30" y1="30" x2="36" y2="30" style="stroke:rgb(0,0,0);stroke-width:1" />
<line x1="610" y1="30" x2="604" y2="30" style="stroke:rgb(0,0,0);stroke-width:1" />
<text x="13" y="34" style="fill:rgb(0,0,0)" font-family="Verdana" font-size="10">100</text>
<!-- plotting test_data_file u 1:2-->
<line x1="52" y1="450" x2="52" y2="446" style="stroke:rgb(255,0,0);stroke-width:1" />
<line x1="52" y1="446" x2="61" y2="446" style="stroke:rgb(255,0,0);stroke-width:1" />
<line x1="61" y1="450" x2="61" y2="446" style="stroke:rgb(255,0,0);stroke-width:1" />
<line x1="61" y1="450" x2="61" y2="442" style="stroke:rgb(255,0,0);stroke-width:1" />
<line x1="61" y1="442" x2="70" y2="442" style="stroke:rgb(255,0,0);stroke-width:1" />
<line x1="70" y1="450" x2="70" y2="442" style="stroke:rgb(255,0,0);stroke-width:1" />
<line x1="70" y1="450" x2="70" y2="434" style="stroke:rgb(255,0,0);stroke-width:1" />
<line x1="70" y1="434" x2="79" y2="434" style="stroke:rgb(255,0,0);stroke-width:1" />
<line x1="79" y1="450" x2="79" y2="434" style="stroke:rgb(255,0,0);stroke-width:1" />
<line x1="79" y1="450" x2="79" y2="421" style="stroke:rgb(255,0,0);stroke-width:1" />
<line x1="79" y1="421" x2="88" y2="421" style="stroke:rgb(255,0,0);stroke-width:1" />
<line x1="88" y1="450" x2="88" y2="421" style="stroke:rgb(255,0,0);stroke-width:1" />
<line x1="88" y1="450" x2="88" y2="404" style="stroke:rgb(255,0,0);stroke-width:1" />
<line x1="88" y1="404" x2="97" y2="404" style="stroke:rgb(255,0,0);stroke-width:1" />
<line x1="97" y1="450" x2="97" y2="404" style="stroke:rgb(255,0,0);stroke-width:1" />
<line x1="97" y1="450" x2="97" y2="396" style="stroke:rgb(255,0,0);stroke-width:1" />
<line x1="97" y1="396" x2="107" y2="396" style="stroke:rgb(255,0,0);stroke-width:1" />
<line x1="107" y1="450" x2="107" y2="396" style="stroke:rgb(255,0,0);stroke-width:1" />
<line x1="107" y1="450" x2="107" y2="303" style="stroke:rgb(255,0,0);stroke-width:1" />
<line x1="107" y1="303" x2="116" y2="303" style="stroke:rgb(255,0,0);stroke-width:1" />
<line x1="116" y1="450" x2="116" y2="303" style="stroke:rgb(255,0,0);stroke-width:1" />
<line x1="116" y1="450" x2="116" y2="303" style="stroke:rgb(255,0,0);stroke-width:1" />
<line x1="116" y1="329" x2="125" y2="329" style="stroke:rgb(255,0,0);stroke-width:1" />
<line x1="125" y1="450" x2="125" y2="329" style="stroke:rgb(255,0,0);stroke-width:1" />
<line x1="125" y1="450" x2="125" y2="303" style="stroke:rgb(255,0,0);stroke-width:1" />
<line x1="125" y1="303" x2="134" y2="303" style="stroke:rgb(255,0,0);stroke-width:1" />
<line x1="134" y1="450" x2="134" y2="303" style="stroke:rgb(255,0,0);stroke-width:1" />
<line x1="134" y1="450" x2="134" y2="261" style="stroke:rgb(255,0,0);stroke-width:1" />
<line x1="134" y1="261" x2="143" y2="261" style="stroke:rgb(255,0,0);stroke-width:1" />
<line x1="143" y1="450" x2="143" y2="261" style="stroke:rgb(255,0,0);stroke-width:1" />
<line x1="143" y1="450" x2="143" y2="261" style="stroke:rgb(255,0,0);stroke-width:1" />
<line x1="143" y1="303" x2="152" y2="303" style="stroke:rgb(255,0,0);stroke-width:1" />
<line x1="152" y1="450" x2="152" y2="303" style="stroke:rgb(255,0,0);stroke-width:1" />
<line x1="152" y1="450" x2="152" y2="303" style="stroke:rgb(255,0,0);stroke-width:1" />
<line x1="152" y1="345" x2="161" y2="345" style="stroke:rgb(255,0,0);stroke-width:1" />
<line x1="161" y1="450" x2="161" y2="345" style="stroke:rgb(255,0,0);stroke-width:1" />
<line x1="161" y1="450" x2="161" y2="345" style="stroke:rgb(255,0,0);stroke-width:1" />
<line x1="161" y1="358" x2="170" y2="358" style="stroke:rgb(255,0,0);stroke-width:1" />
<line x1="170" y1="450" x2="170" y2="358" style="stroke:rgb(255,0,0);stroke-width:1" />
<line x1="170" y1="450" x2="170" y2="358" style="stroke:rgb(255,0,0);stroke-width:1" />
<line x1="170" y1="387" x2="179" y2="387" style="stroke:rgb(255,0,0);stroke-width:1" />
<line x1="179" y1="450" x2="179" y2="387" style="stroke:rgb(255,0,0);stroke-width:1" />
<line x1="179" y1="450" x2="179" y2="387" style="stroke:rgb(255,0,0);stroke-width:1" />
<line x1="179" y1="413" x2="188" y2="413" style="stroke:rgb(255,0,0);stroke-width:1" />
<line x1="188" y1="450" x2="188" y2="413" style="stroke:rgb(255,0,0);stroke-width:1" />
<line x1="188" y1="450" x2="188" y2="404" style="stroke:rgb(255,0,0);stroke-width:1" />
<line x1="188" y1="404" x2="197" y2="404" style="stroke:rgb(255,0,0);stroke-width:1" />
<line x1="197" y1="450" x2="197" y2="404" style="stroke:rgb(255,0,0);stroke-width:1" />
<line x1="197" y1="450" x2="197" y2="400" style="stroke:rgb(255,0,0);stroke-width:1" />
<line x1="197" y1="400" x2="206" y2="400" style="stroke:rgb(255,0,0);stroke-width:1" />
<line x1="206" y1="450" x2="206" y2="400" style="stroke:rgb(255,0,0);stroke-width:1" />
<line x1="206" y1="450" x2="206" y2="362" style="stroke:rgb(255,0,0);stroke-width:1" />
<line x1="206" y1="362" x2="215" y2="362" style="stroke:rgb(255,0,0);stroke-width:1" />
<line x1="215" y1="450" x2="215" y2="362" style="stroke:rgb(255,0,0);stroke-width:1" />
<line x1="215" y1="450" x2="215" y2="333" style="stroke:rgb(255,0,0);stroke-width:1" />
<line x1="215" y1="333" x2="224" y2="333" style="stroke:rgb(255,0,0);stroke-width:1" />
<line x1="224" y1="450" x2="224" y2="333" style="stroke:rgb(255,0,0);stroke-width:1" />
<line x1="224" y1="450" x2="224" y2="282" style="stroke:rgb(255,0,0);stroke-width:1" />
<line x1="224" y1="282" x2="233" y2="282" style="stroke:rgb(255,0,0);stroke-width:1" />
<line x1="233" y1="450" x2="233" y2="282" style="stroke:rgb(255,0,0);stroke-width:1" />
<line x1="233" y1="450" x2="233" y2="240" style="stroke:rgb(255,0,0);stroke-width:1" />
<line x1="233" y1="240" x2="242" y2="240" style="stroke:rgb(255,0,0);stroke-width:1" />
<line x1="242" y1="450" x2="242" y2="240" style="stroke:rgb(255,0,0);stroke-width:1" />
<line x1="242" y1="450" x2="242" y2="240" style="stroke:rgb(255,0,0);stroke-width:1" />
<line x1="242" y1="257" x2="252" y2="257" style="stroke:rgb(255,0,0);stroke-width:1" />
<line x1="252" y1="450" x2="252" y2="257" style="stroke:rgb(255,0,0);stroke-width:1" />
<line x1="252" y1="450" x2="252" y2="102" style="stroke:rgb(255,0,0);stroke-width:1" />
<line x1="252" y1="102" x2="261" y2="102" style="stroke:rgb(255,0,0);stroke-width:1" />
<line x1="261" y1="450" x2="261" y2="102" style="stroke:rgb(255,0,0);stroke-width:1" />
<line x1="261" y1="450" x2="261" y2="102" style="stroke:rgb(255,0,0);stroke-width:1" />
<line x1="261" y1="198" x2="270" y2="198" style="stroke:rgb(255,0,0);stroke-width:1" />
<line x1="270" y1="450" x2="270" y2="198" style="stroke:rgb(255,0,0);stroke-width:1" />
<line x1="270" y1="450" x2="270" y2="182" style="stroke:rgb(255,0,0);stroke-width:1" />
<line x1="270" y1="182" x2="279" y2="182" style="stroke:rgb(255,0,0);stroke-width:1" />
<line x1="279" y1="450" x2="279" y2="182" style="stroke:rgb(255,0,0);stroke-width:1" />
<line x1="279" y1="450" x2="279" y2="114" style="stroke:rgb(255,0,0);stroke-width:1" />
<line x1="279" y1="114" x2="288" y2="114" style="stroke:rgb(255,0,0);stroke-width:1" />
<line x1="288" y1="450" x2="288" y2="114" style="stroke:rgb(255,0,0);stroke-width:1" />
<line x1="288" y1="450" x2="288" y2="114" style="stroke:rgb(255,0,0);stroke-width:1" />
<line x1="288" y1="169" x2="297" y2="169" style="stroke:rgb(255,0,0);stroke-width:1" />
<line x1="297" y1="450" x2="297" y2="169" style="stroke:rgb(255,0,0);stroke-width:1" />
<line x1="297" y1="450" x2="297" y2="106" style="stroke:rgb(255,0,0);stroke-width:1" />
<line x1="297" y1="106" x2="306" y2="106" style="stroke:rgb(255,0,0);stroke-width:1" />
<line x1="306" y1="450" x2="306" y2="106" style="stroke:rgb(255,0,0);stroke-width:1" />
<line x1="306" y1="450" x2="306" y2="106" style="stroke:rgb(255,0,0);stroke-width:1" />
<line x1="306" y1="135" x2="315" y2="135" style="stroke:rgb(255,0,0);stroke-width:1" />
<line x1="315" y1="450" x2="315" y2="135" style="stroke:rgb(255,0,0);stroke-width:1" />
<line x1="315" y1="450" x2="315" y2="123" style="stroke:rgb(255,0,0);stroke-width:1" />
<line x1="315" y1="123" x2="324" y2="123" style="stroke:rgb(255,0,0);stroke-width:1" />
<line x1="324" y1="450" x2="324" y2="123" style="stroke:rgb(255,0,0);stroke-width:1" />
<line x1="324" y1="450" x2="324" y2="64" style="stroke:rgb(255,0,0);stroke-width:1" />
<line x1="324" y1="64" x2="333" y2="64" style="stroke:rgb(255,0,0);stroke-width:1" />
<line x1="333" y1="450" x2="333" y2="64" style="stroke:rgb(255,0,0);stroke-width:1" />
<line x1="333" y1="450" x2="333" y2="64" style="stroke:rgb(255,0,0);stroke-width:1" />
<line x1="333" y1="135" x2="342" y2="135" style="stroke:rgb(255,0,0);stroke-width:1" />
<line x1="342" y1="450" x2="342" y2="135" style="stroke:rgb(255,0,0);stroke-width:1" />
<line x1="342" y1="450" x2="342" y2="98" style="stroke:rgb(255,0,0);stroke-width:1" />
<line x1="342" y1="98" x2="351" y2="98" style="stroke:rgb(255,0,0);stroke-width:1" />
<line x1="351" y1="450" x2="351" y2="98" style="stroke:rgb(255,0,0);stroke-width:1" />
<line x1="351" y1="450" x2="351" y2="98" style="stroke:rgb(255,0,0);stroke-width:1" />
<line x1="351" y1="102" x2="360" y2="102" style="stroke:rgb(255,0,0);stroke-width:1" />
<line x1="360" y1="450" x2="360" y2="102" style="stroke:rgb(255,0,0);stroke-width:1" />
<line x1="360" y1="450" x2="360" y2="102" style="stroke:rgb(255,0,0);stroke-width:1" />
<line x1="360" y1="190" x2="369" y2="190" style="stroke:rgb(255,0,0);stroke-width:1" />
<line x1="369" y1="450" x2="369" y2="190" style="stroke:rgb(255,0,0);stroke-width:1" />
<line x1="369" y1="450" x2="369" y2="190" style="stroke:rgb(255,0,0);stroke-width:1" />
<line x1="369" y1="211" x2="378" y2="211" style="stroke:rgb(255,0,0);stroke-width:1" />
<line x1="378" y1="450" x2="378" y2="211" style="stroke:rgb(255,0,0);stroke-width:1" />
<line x1="378" y1="450" x2="378" y2="173" style="stroke:rgb(255,0,0);stroke-width:1" />
<line x1="378" y1="173" x2="387" y2="173" style="stroke:rgb(255,0,0);stroke-width:1" />
<line x1="387" y1="450" x2="387" y2="173" style="stroke:rgb(255,0,0);stroke-width:1" />
<line x1="387" y1="450" x2="387" y2="173" style="stroke:rgb(255,0,0);stroke-width:1" />
<line x1="387" y1="232" x2="397" y2="232" style="stroke:rgb(255,0,0);stroke-width:1" />
<line x1="397" y1="450" x2="397" y2="232" style="stroke:rgb(255,0,0);stroke-width:1" />
<line x1="397" y1="450" x2="397" y2="228" style="stroke:rgb(255,0,0);stroke-width:1" />
<line x1="397" y1="228" x2="406" y2="228" style="stroke:rgb(255,0,0);stroke-width:1" />
<line x1="406" y1="450" x2="406" y2="228" style="stroke:rgb(255,0,0);stroke-width:1" />
<line x1="406" y1="450" x2="406" y2="228" style="stroke:rgb(255,0,0);stroke-width:1" />
<line x1="406" y1="245" x2="415" y2="245" style="stroke:rgb(255,0,0);stroke-width:1" />
<line x1="415" y1="450" x2="415" y2="245" style="stroke:rgb(255,0,0);stroke-width:1" />
<line x1="415" y1="450" x2="415" y2="245" style="stroke:rgb(255,0,0);stroke-width:1" />
<line x1="415" y1="295" x2="424" y2="295" style="stroke:rgb(255,0,0);stroke-width:1" />
<line x1="424" y1="450" x2="424" y2="295" style="stroke:rgb(255,0,0);stroke-width:1" />
<line x1="424" y1="450" x2="424" y2="295" style="stroke:rgb(255,0,0);stroke-width:1" />
<line x1="424" y1="320" x2="433" y2="320" style="stroke:rgb(255,0,0);stroke-width:1" />
<line x1="433" y1="450" x2="433" y2="320" style="stroke:rgb(255,0,0);stroke-width:1" />
<line x1="433" y1="450" x2="433" y2="320" style="stroke:rgb(255,0,0);stroke-width:1" />
<line x1="433" y1="345" x2="442" y2="345" style="stroke:rgb(255,0,0);stroke-width:1" />
<line x1="442" y1="450" x2="442" y2="345" style="stroke:rgb(255,0,0);stroke-width:1" />
<line x1="442" y1="450" x2="442" y2="316" style="stroke:rgb(255,0,0);stroke-width:1" />
<line x1="442" y1="316" x2="451" y2="316" style="stroke:rgb(255,0,0);stroke-width:1" />
<line x1="451" y1="450" x2="451" y2="316" style="stroke:rgb(255,0,0);stroke-width:1" />
<line x1="451" y1="450" x2="451" y2="316" style="stroke:rgb(255,0,0);stroke-width:1" />
<line x1="451" y1="392" x2="460" y2="392" style="stroke:rgb(255,0,0);stroke-width:1" />
<line x1="460" y1="450" x2="460" y2="392" style="stroke:rgb(255,0,0);stroke-width:1" />
<line x1="460" y1="450" x2="460" y2="392" style="stroke:rgb(255,0,0);stroke-width:1" />
<line x1="460" y1="400" x2="469" y2="400" style="stroke:rgb(255,0,0);stroke-width:1" />
<line x1="469" y1="450" x2="469" y2="400" style="stroke:rgb(255,0,0);stroke-width:1" />
<line x1="469" y1="450" x2="469" y2="392" style="stroke:rgb(255,0,0);stroke-width:1" />
<line x1="469" y1="392" x2="478" y2="392" style="stroke:rgb(255,0,0);stroke-width:1" />
<line x1="478" y1="450" x2="478" y2="392" style="stroke:rgb(255,0,0);stroke-width:1" />
<line x1="478" y1="450" x2="478" y2="392" style="stroke:rgb(255,0,0);stroke-width:1" />
<line x1="478" y1="408" x2="487" y2="408" style="stroke:rgb(255,0,0);stroke-width:1" />
<line x1="487" y1="450" x2="487" y2="408" style="stroke:rgb(255,0,0);stroke-width:1" />
<line x1="487" y1="450" x2="487" y2="396" style="stroke:rgb(255,0,0);stroke-width:1" />
<line x1="487" y1="396" x2="496" y2="396" style="stroke:rgb(255,0,0);stroke-width:1" />
<line x1="496" y1="450" x2="496" y2="396" style="stroke:rgb(255,0,0);stroke-width:1" />
<line x1="496" y1="450" x2="496" y2="396" style="stroke:rgb(255,0,0);stroke-width:1" />
<line x1="496" y1="417" x2="505" y2="417" style="stroke:rgb(255,0,0);stroke-width:1" />
<line x1="505" y1="450" x2="505" y2="417" style="stroke:rgb(255,0,0);stroke-width:1" />
<line x1="505" y1="450" x2="505" y2="413" style="stroke:rgb(255,0,0);stroke-width:1" />
<line x1="505" y1="413" x2="514" y2="413" style="stroke:rgb(255,0,0);stroke-width:1" />
<line x1="514" y1="450" x2="514" y2="413" style="stroke:rgb(255,0,0);stroke-width:1" />
<line x1="514" y1="450" x2="514" y2="413" style="stroke:rgb(255,0,0);stroke-width:1" />
<line x1="514" y1="421" x2="523" y2="421" style="stroke:rgb(255,0,0);stroke-width:1" />
<line x1="523" y1="450" x2="523" y2="421" style="stroke:rgb(255,0,0);stroke-width:1" />
<line x1="523" y1="450" x2="523" y2="421" style="stroke:rgb(255,0,0);stroke-width:1" />
<line x1="523" y1="429" x2="532" y2="429" style="stroke:rgb(255,0,0);stroke-width:1" />
<line x1="532" y1="450" x2="532" y2="429" style="stroke:rgb(255,0,0);stroke-width:1" />
<line x1="532" y1="450" x2="532" y2="421" style="stroke:rgb(255,0,0);stroke-width:1" />
<line x1="532" y1="421" x2="542" y2="421" style="stroke:rgb(255,0,0);stroke-width:1" />
<line x1="542" y1="450" x2="542" y2="421" style="stroke:rgb(255,0,0);stroke-width:1" />
<line x1="542" y1="450" x2="542" y2="421" style="stroke:rgb(255,0,0);stroke-width:1" />
<line x1="542" y1="429" x2="551" y2="429" style="stroke:rgb(255,0,0);stroke-width:1" />
<line x1="551" y1="450" x2="551" y2="429" style="stroke:rgb(255,0,0);stroke-width:1" />
<line x1="551" y1="450" x2="551" y2="425" style="stroke:rgb(255,0,0);stroke-width:1" />
<line x1="551" y1="425" x2="560" y2="425" style="stroke:rgb(255,0,0);stroke-width:1" />
<line x1="560" y1="450" x2="560" y2="425" style="stroke:rgb(255,0,0);stroke-width:1" />
<line x1="560" y1="450" x2="560" y2="413" style="stroke:rgb(255,0,0);stroke-width:1" />
<line x1="560" y1="413" x2="569" y2="413" style="stroke:rgb(255,0,0);stroke-width:1" />
<line x1="569" y1="450" x2="569" y2="413" style="stroke:rgb(255,0,0);stroke-width:1" />
<line x1="569" y1="450" x2="569" y2="413" style="stroke:rgb(255,0,0);stroke-width:1" />
<line x1="569" y1="417" x2="578" y2="417" style="stroke:rgb(255,0,0);stroke-width:1" />
<line x1="578" y1="450" x2="578" y2="417" style="stroke:rgb(255,0,0);stroke-width:1" />
<line x1="578" y1="450" x2="578" y2="417" style="stroke:rgb(255,0,0);stroke-width:1" />
<line x1="590" y1="44" x2="600" y2="44" style="stroke:rgb(255,0,0);stroke-width:1" />
<text x="506" y="48" style="fill:rgb(0,0,0)" font-family="Verdana" font-size="10">test_data_file u 1:2</text>
</svg>
