<svg width="640" height="480" xmlns="http://www.w3.org/2000/svg" xmlns:xlink="http://www.w3.org/1999/xlink">
<!-- image background-->
<rect width="640" height="480" style="fill:white;stroke-width:0" />
<!-- plot grid-->
<line x1="30" y1="450" x2="610" y2="450" style="stroke:rgb(0,0,0);stroke-width:1" />
<line x1="30" y1="30" x2="610" y2="30" style="stroke:rgb(0,0,0);stroke-width:1" />
<line x1="30" y1="450" x2="30" y2="30" style="stroke:rgb(0,0,0);stroke-width:1" />
<line x1="610" y1="450" x2="610" y2="30" style="stroke:rgb(0,0,0);stroke-width:1" />
<!-- grid x scale-->
<line x1="30" y1="450" x2="30" y2="444" style="stroke:rgb(0,0,0);stroke-width:1" />
<line x1="30" y1="30" x2="30" y2="36" style="stroke:rgb(0,0,0);stroke-width:1" />
<text x="27" y="464" style="fill:rgb(0,0,0)" font-family="Verdana" font-size="10">-4</text>
<line x1="30" y1="450" x2="30" y2="444" style="stroke:rgb(0,0,0);stroke-width:1" />
<line x1="30" y1="30" x2="30" y2="36" style="stroke:rgb(0,0,0);stroke-width:1" />
<text x="27" y="464" style="fill:rgb(0,0,0)" font-family="Verdana" font-size="10">-4</text>
<line x1="102" y1="450" x2="102" y2="444" style="stroke:rgb(0,0,0);stroke-width:1" />
<line x1="102" y1="30" x2="102" y2="36" style="stroke:rgb(0,0,0);stroke-width:1" />
<text x="99" y="464" style="fill:rgb(0,0,0)" font-family="Verdana" font-size="10">-3</text>
<line x1="175" y1="450" x2="175" y2="444" style="stroke:rgb(0,0,0);stroke-width:1" />
<line x1="175" y1="30" x2="175" y2="36" style="stroke:rgb(0,0,0);stroke-width:1" />
<text x="172" y="464" style="fill:rgb(0,0,0)" font-family="Verdana" font-size="10">-2</text>
<line x1="247" y1="450" x2="247" y2="444" style="stroke:rgb(0,0,0);stroke-width:1" />
<line x1="247" y1="30" x2="247" y2="36" style="stroke:rgb(0,0,0);stroke-width:1" />
<text x="244" y="464" style="fill:rgb(0,0,0)" font-family="Verdana" font-size="10">-1</text>
<line x1="320" y1="450" x2="320" y2="444" style="stroke:rgb(0,0,0);stroke-width:1" />
<line x1="320" y1="30" x2="320" y2="36" style="stroke:rgb(0,0,0);stroke-width:1" />
<text x="319" y="464" style="fill:rgb(0,0,0)" font-family="Verdana" font-size="10">0</text>
<line x1="320" y1="450" x2="320" y2="444" style="stroke:rgb(0,0,0);stroke-width:1" />
<line x1="320" y1="30" x2="320" y2="36" style="stroke:rgb(0,0,0);stroke-width:1" />
<text x="319" y="464" style="fill:rgb(0,0,0)" font-family="Verdana" font-size="10">0</text>
<line x1="392" y1="450" x2="392" y2="444" style="stroke:rgb(0,0,0);stroke-width:1" />
<line x1="392" y1="30" x2="392" y2="36" style="stroke:rgb(0,0,0);stroke-width:1" />
<text x="391" y="464" style="fill:rgb(0,0,0)" font-family="Verdana" font-size="10">1</text>
<line x1="465" y1="450" x2="465" y2="444" style="stroke:rgb(0,0,0);stroke-width:1" />
<line x1="465" y1="30" x2="465" y2="36" style="stroke:rgb(0,0,0);stroke-width:1" />
<text x="464" y="464" style="fill:rgb(0,0,0)" font-family="Verdana" font-size="10">2</text>
<line x1="537" y1="450" x2="537" y2="444" style="stroke:rgb(0,0,0);stroke-width:1" />
<line x1="537" y1="30" x2="537" y2="36" style="stroke:rgb(0,0,0);stroke-width:1" />
<text x="536" y="464" style="fill:rgb(0,0,0)" font-family="Verdana" font-size="10">3</text>
<line x1="610" y1="450" x2="610" y2="444" style="stroke:rgb(0,0,0);stroke-width:1" />
<line x1="610" y1="30" x2="610" y2="36" style="stroke:rgb(0,0,0);stroke-width:1" />
<text x="609" y="464" style="fill:rgb(0,0,0)" font-family="Verdana" font-size="10">4</text>
<!-- grid y scale-->
<line x1="30" y1="450" x2="36" y2="450" style="stroke:rgb(0,0,0);stroke-width:1" />
<line x1="610" y1="450" x2="604" y2="450" style="stroke:rgb(0,0,0);stroke-width:1" />
<text x="21" y="454" style="fill:rgb(0,0,0)" font-family="Verdana" font-size="10">0</text>
<line x1="30" y1="409" x2="36" y2="409" style="stroke:rgb(0,0,0);stroke-width:1" />
<line x1="610" y1="409" x2="604" y2="409" style="stroke:rgb(0,0,0);stroke-width:1" />
<text x="21" y="413" style="fill:rgb(0,0,0)" font-family="Verdana" font-size="10">2</text>
<line x1="30" y1="367" x2="36" y2="367" style="stroke:rgb(0,0,0);stroke-width:1" />
<line x1="610" y1="367" x2="604" y2="367" style="stroke:rgb(0,0,0);stroke-width:1" />
<text x="21" y="371" style="fill:rgb(0,0,0)" font-family="Verdana" font-size="10">5</text>
<line x1="30" y1="326" x2="36" y2="326" style="stroke:rgb(0,0,0);stroke-width:1" />
<line x1="610" y1="326" x2="604" y2="326" style="stroke:rgb(0,0,0);stroke-width:1" />
<text x="21" y="330" style="fill:rgb(0,0,0)" font-family="Verdana" font-size="10">8</text>
<line x1="30" y1="284" x2="36" y2="284" style="stroke:rgb(0,0,0);stroke-width:1" />
<line x1="610" y1="284" x2="604" y2="284" style="stroke:rgb(0,0,0);stroke-width:1" />
<text x="17" y="288" style="fill:rgb(0,0,0)" font-family="Verdana" font-size="10">11</text>
<line x1="30" y1="242" x2="36" y2="242" style="stroke:rgb(0,0,0);stroke-width:1" />
<line x1="610" y1="242" x2="604" y2="242" style="stroke:rgb(0,0,0);stroke-width:1" />
<text x="17" y="246" style="fill:rgb(0,0,0)" font-family="Verdana" font-size="10">14</text>
<line x1="30" y1="201" x2="36" y2="201" style="stroke:rgb(0,0,0);stroke-width:1" />
<line x1="610" y1="201" x2="604" y2="201" style="stroke:rgb(0,0,0);stroke-width:1" />
<text x="17" y="205" style="fill:rgb(0,0,0)" font-family="Verdana" font-size="10">17</text>
<line x1="30" y1="159" x2="36" y2="159" style="stroke:rgb(0,0,0);stroke-width:1" />
<line x1="610" y1="159" x2="604" y2="159" style="stroke:rgb(0,0,0);stroke-width:1" />
<text x="17" y="163" style="fill:rgb(0,0,0)" font-family="Verdana" font-size="10">20</text>
<line x1="30" y1="117" x2="36" y2="117" style="stroke:rgb(0,0,0);stroke-width:1" />
<line x1="610" y1="117" x2="604" y2="117" style="stroke:rgb(0,0,0);stroke-width:1" />
<text x="17" y="121" style="fill:rgb(0,0,0)" font-family="Verdana" font-size="10">23</text>
<line x1="30" y1="76" x2="36" y2="76" style="stroke:rgb(0,0,0);stroke-width:1" />
<line x1="610" y1="76" x2="604" y2="76" style="stroke:rgb(0,0,0);stroke-width:1" />
<text x="17" y="80" style="fill:rgb(0,0,0)" font-family="Verdana" font-size="10">26</text>
<line x1="30" y1="34" x2="36" y2="34" style="stroke:rgb(0,0,0);stroke-width:1" />
<line x1="610" y1="34" x2="604" y2="34" style="stroke:rgb(0,0,0);stroke-width:1" />
<text x="17" y="38" style="fill:rgb(0,0,0)" font-family="Verdana" font-size="10">29</text>
<!-- plotting x * x - ( 3 * x ) + 2-->
<path d="M30 30 L31 33 L32 35 L33 37 L34 39 L35 41 L36 43 L37 45 L38 47 L38 49 L39 51 L40 53 L41 55 L42 57 L44 59 L45 62 L46 64 L47 66 L48 68 L49 70 L50 72 L51 74 L52 76 L53 78 L53 80 L55 82 L55 83 L56 85 L57 87 L58 89 L60 91 L61 93 L62 95 L63 97 L64 99 L65 101 L66 103 L67 105 L68 107 L68 109 L70 111 L70 112 L72 114 L72 116 L74 118 L75 120 L76 122 L77 124 L78 126 L79 127 L80 129 L81 131 L82 133 L83 135 L84 137 L85 138 L85 140 L87 142 L87 144 L88 146 L90 147 L91 149 L92 151 L93 153 L94 155 L95 156 L96 158 L97 160 L98 162 L99 163 L100 165 L100 167 L102 168 L102 170 L104 172 L104 174 L106 175 L107 177 L108 179 L109 180 L110 182 L111 184 L112 185 L113 187 L114 189 L115 190 L115 192 L117 194 L117 195 L119 197 L119 199 L121 200 L121 202 L122 204 L124 205 L125 207 L126 208 L127 210 L128 212 L129 213 L130 215 L130 216 L132 218 L133 219 L134 221 L135 223 L136 224 L137 226 L138 227 L139 229 L140 230 L141 232 L142 233 L143 235 L144 236 L145 238 L146 239 L147 241 L147 242 L149 244 L150 245 L151 247 L152 248 L153 250 L154 251 L155 253 L156 254 L157 255 L158 257 L159 258 L160 260 L161 261 L162 263 L162 264 L164 265 L164 267 L166 268 L166 270 L168 271 L169 272 L170 274 L171 275 L172 276 L173 278 L174 279 L175 280 L176 282 L177 283 L178 284 L179 286 L180 287 L181 288 L182 290 L183 291 L184 292 L185 294 L186 295 L187 296 L188 297 L189 299 L190 300 L191 301 L192 302 L193 304 L194 305 L195 306 L196 307 L197 309 L198 310 L199 311 L199 312 L201 313 L202 315 L203 316 L204 317 L205 318 L206 319 L207 321 L208 322 L209 323 L210 324 L211 325 L212 326 L213 328 L214 329 L215 330 L215 331 L217 332 L218 333 L219 334 L220 335 L221 336 L222 338 L223 339 L224 340 L225 341 L226 342 L227 343 L228 344 L229 345 L230 346 L231 347 L231 348 L233 349 L234 350 L235 351 L236 352 L237 353 L238 354 L239 355 L240 356 L241 357 L242 358 L243 359 L244 360 L245 361 L246 362 L247 363 L247 364 L249 365 L250 366 L251 367 L252 368 L253 369 L254 370 L255 371 L256 372 L257 373 L258 373 L259 374 L260 375 L261 376 L262 377 L263 378 L264 379 L265 380 L266 381 L267 381 L268 382 L269 383 L270 384 L271 385 L272 386 L273 386 L274 387 L275 388 L276 389 L277 390 L278 390 L279 391 L280 392 L281 393 L282 394 L283 394 L284 395 L285 396 L286 397 L287 397 L288 398 L289 399 L290 400 L291 400 L292 401 L293 402 L294 403 L295 403 L296 404 L297 405 L298 405 L299 406 L300 407 L301 407 L302 408 L303 409 L304 409 L305 410 L306 411 L307 411 L308 412 L309 413 L310 413 L311 414 L312 414 L313 415 L314 416 L315 416 L316 417 L317 418 L318 418 L319 419 L320 419 L320 420 L322 420 L323 421 L324 422 L325 422 L326 423 L327 423 L328 424 L329 424 L330 425 L331 425 L332 426 L333 426 L334 427 L335 427 L336 428 L337 428 L338 429 L339 429 L340 430 L341 430 L342 431 L343 431 L344 432 L345 432 L346 432 L347 433 L348 433 L349 434 L350 434 L351 435 L352 435 L352 435 L354 436 L355 436 L356 437 L357 437 L358 437 L359 438 L360 438 L361 438 L362 439 L363 439 L364 439 L365 440 L366 440 L367 440 L368 441 L369 441 L369 441 L371 442 L372 442 L373 442 L374 443 L375 443 L376 443 L377 443 L378 444 L379 444 L380 444 L381 444 L382 445 L383 445 L384 445 L384 445 L386 446 L387 446 L388 446 L389 446 L390 447 L391 447 L392 447 L393 447 L394 447 L395 447 L396 448 L397 448 L398 448 L399 448 L400 448 L401 448 L401 449 L403 449 L404 449 L405 449 L406 449 L407 449 L408 449 L409 449 L410 450 L411 450 L412 450 L413 450 L414 450 L415 450 L416 450 L416 450 L418 450 L419 450 L420 450 L421 450 L422 450 L423 450 L424 450 L425 450 L426 450 L427 450 L428 450 L429 450 L430 450 L431 450 L432 450 L433 450 L433 450 L435 450 L436 450 L437 450 L438 450 L439 450 L440 450 L441 450 L442 450 L443 450 L444 450 L445 450 L446 450 L447 450 L448 450 L448 449 L450 449 L451 449 L452 449 L453 449 L454 449 L455 449 L456 449 L457 448 L458 448 L459 448 L460 448 L461 448 L462 448 L463 447 L464 447 L465 447 L465 447 L467 447 L468 446 L469 446 L470 446 L471 446 L472 446 L473 445 L474 445 L475 445 L476 445 L477 444 L478 444 L479 444 L480 444 L481 443 L482 443 L483 443 L484 442 L485 442 L486 442 L487 442 L488 441 L489 441 L490 441 L491 440 L492 440 L493 440 L494 439 L495 439 L496 439 L497 438 L497 438 L499 437 L500 437 L501 437 L502 436 L503 436 L504 436 L505 435 L506 435 L507 434 L508 434 L509 433 L510 433 L511 433 L512 432 L513 432 L514 431 L515 431 L516 430 L517 430 L518 429 L519 429 L520 429 L521 428 L522 428 L523 427 L524 427 L525 426 L526 426 L527 425 L528 424 L529 424 L530 423 L531 423 L532 422 L533 422 L534 421 L535 421 L536 420 L537 420 L538 419 L539 418 L540 418 L541 417 L542 417 L543 416 L544 415 L545 415 L546 414 L547 414 L548 413 L549 412 L550 412 L551 411 L552 410 L553 410 L554 409 L555 408 L556 408 L557 407 L558 406 L559 406 L560 405 L561 404 L562 404 L563 403 L564 402 L565 401 L566 401 L567 400 L568 399 L569 399 L570 398 L571 397 L572 396 L573 396 L574 395 L575 394 L576 393 L577 392 L578 392 L579 391 L580 390 L581 389 L582 388 L583 388 L584 387 L585 386 L586 385 L587 384 L588 384 L589 383 L590 382 L591 381 L592 380 L593 379 L594 378 L595 377 L596 377 L597 376 L598 375 L599 374 L600 373 L601 372 L602 371 L603 370 L604 369 L605 368 L606 368 L607 367 L608 366 L609 365 L610 364" style="stroke:rgb(255,0,0);stroke-width:1" fill="none" />
<line x1="590" y1="30" x2="600" y2="30" style="stroke:rgb(255,0,0);stroke-width:1" />
<text x="503" y="30" style="fill:rgb(0,0,0)" font-family="Verdana" font-size="10">x * x - ( 3 * x ) + 2</text>
</svg>
